<?xml version="1.0" encoding="utf-8"?>
<!-- Generator: Adobe Illustrator 22.1.0, SVG Export Plug-In . SVG Version: 6.00 Build 0)  -->
<svg version="1.1" id="Layer_1" xmlns="http://www.w3.org/2000/svg" xmlns:xlink="http://www.w3.org/1999/xlink" x="0px" y="0px"
	 viewBox="0 0 598 511" style="enable-background:new 0 0 598 511;" xml:space="preserve">
<style type="text/css">
	.st0{fill:none;stroke:#FFFFFF;stroke-width:34.4555;stroke-miterlimit:10;}
</style>
<path class="st0" d="M486.5,43c-21.6-11.9-46.3-18.7-72.7-18.7c-46.6,0-88.3,21.2-115.8,54.5c-27.7-33.3-69.3-54.5-116-54.5
	c-26.3,0-51,6.8-72.6,18.7c-46.4,25.7-77.8,75.1-77.8,131.8c0,16.2,2.6,31.8,7.4,46.4c25.8,116.1,259,262.5,259,262.5
	s233-146.4,258.8-262.5c4.8-14.6,7.5-30.2,7.5-46.4C564.3,118.1,532.9,68.7,486.5,43z"/>
</svg>
