<?xml version="1.0" encoding="utf-8"?>
<!-- Generator: Adobe Illustrator 22.1.0, SVG Export Plug-In . SVG Version: 6.00 Build 0)  -->
<svg version="1.1" id="Layer_1" xmlns="http://www.w3.org/2000/svg" xmlns:xlink="http://www.w3.org/1999/xlink" x="0px" y="0px"
	 viewBox="0 0 17 16" style="enable-background:new 0 0 17 16;" xml:space="preserve">
<style type="text/css">
	.st0{fill:#F7F7F9;}
	.st1{fill:#FCFCFC;}
</style>
<title>1142</title>
<g>
	<g transform="translate(1.000000, 0.000000)">
		<path class="st0" d="M0,6c0,3.3,2.7,6,6,6s6-2.7,6-6S9.3,0,6,0S0,2.7,0,6L0,6z M11.1,6c0,2.8-2.3,5.1-5.1,5.1S0.9,8.8,0.9,6
			S3.2,0.9,6,0.9C8.8,0.9,11.1,3.2,11.1,6L11.1,6z"/>
		<path class="st0" d="M14.2,16l-4-4c0,0,0.8-0.1,1.2-0.6c0.5-0.5,0.6-1.2,0.6-1.2l4,4L14.2,16L14.2,16z"/>
		<path class="st1" d="M2.6,5.1c0-1.4,1.1-2.5,2.5-2.5c0.6,0,0.4-0.4-0.4-0.4c-1.4,0-2.5,1.1-2.5,2.5C2.2,5.4,2.6,5.6,2.6,5.1
			L2.6,5.1z"/>
	</g>
</g>
</svg>
